# xmcd
#
# Track frame offsets:
#	150
#	18479
#	33684
#	51346
#	66800
#	81994
#	102471
#	120295
#	140133
#	157036
#	177247
#	195561
#	213694
#	231615
#	247960
#	265746
#	281304
#	297417
#	315758
#
# Disc length: 4420 seconds
#
# Revision: 2
# Processed by: cddbd v1.5.2PL0 Copyright (c) Steve Scherf et al.
# Submitted via: EasyCDDAExtractor 15.3.0.1
#
DISCID=1e114213
DTITLE=Anastacia - Top 40 - Her Ultimate Top 40 Collection - CD 1 
DYEAR=2017
DGENRE=Pop/Rock
TTITLE0=I'm Outta Love
TTITLE1=Paid My Dues
TTITLE2=Left Outside Alone
TTITLE3=One Day In Your Life
TTITLE4=Not That Kind
TTITLE5=Cowboys and Kisses
TTITLE6=Pieces Of A Dream
TTITLE7=Take This Chance
TTITLE8=Why'd You Lie To Me
TTITLE9=Heavy On My Heart
TTITLE10=Lifeline
TTITLE11=Welcome To My Truth
TTITLE12=Sweet Child O' Mine
TTITLE13=Made For Lovin' You
TTITLE14=Stupid Little Things
TTITLE15=What Can We Do (Deeper Love)
TTITLE16=Time
TTITLE17=How Come The World Won't Stop
TTITLE18=Burning Star
EXTD=
EXTT0=
EXTT1=
EXTT2=
EXTT3=
EXTT4=
EXTT5=
EXTT6=
EXTT7=
EXTT8=
EXTT9=
EXTT10=
EXTT11=
EXTT12=
EXTT13=
EXTT14=
EXTT15=
EXTT16=
EXTT17=
EXTT18=
PLAYORDER=
